<?xml version="1.0" encoding="UTF-8" standalone="no"?>
<svg
   xmlns:dc="http://purl.org/dc/elements/1.1/"
   xmlns:cc="http://creativecommons.org/ns#"
   xmlns:rdf="http://www.w3.org/1999/02/22-rdf-syntax-ns#"
   xmlns:svg="http://www.w3.org/2000/svg"
   xmlns="http://www.w3.org/2000/svg"
   xmlns:sodipodi="http://sodipodi.sourceforge.net/DTD/sodipodi-0.dtd"
   xmlns:inkscape="http://www.inkscape.org/namespaces/inkscape"
   viewBox="0 0 486.43814 436.92804"
   height="436.92804"
   width="486.43814"
   id="svg583"
   version="1.1"
   inkscape:version="0.48.5 r10040"
   sodipodi:docname="30c1f_ark_survival_evolved_3_.svg">
  <sodipodi:namedview
     pagecolor="#ffffff"
     bordercolor="#666666"
     borderopacity="1"
     objecttolerance="10"
     gridtolerance="10"
     guidetolerance="10"
     inkscape:pageopacity="0"
     inkscape:pageshadow="2"
     inkscape:window-width="640"
     inkscape:window-height="480"
     id="namedview6"
     showgrid="false"
     inkscape:zoom="0.48261759"
     inkscape:cx="248.05535"
     inkscape:cy="192.56822"
     inkscape:window-x="0"
     inkscape:window-y="0"
     inkscape:window-maximized="0"
     inkscape:current-layer="svg583" />
  <metadata
     id="metadata589">
    <rdf:RDF>
      <cc:Work
         rdf:about="">
        <dc:format>image/svg+xml</dc:format>
        <dc:type
           rdf:resource="http://purl.org/dc/dcmitype/StillImage" />
        <dc:title />
      </cc:Work>
    </rdf:RDF>
  </metadata>
  <defs
     id="defs587" />
  <path
     id="path593"
     d="M 1.5768957,433.14392 C 23.896379,379.58335 43.573569,333.0803 44.328227,332.10981 c 0.675113,-0.86819 4.404834,-1.25 12.210781,-1.25 h 11.238773 l 2.055538,5.25 c 1.130545,2.8875 7.996251,19.875 15.257122,37.75 23.733989,58.42894 24.961419,61.49141 24.963179,62.28383 9.5e-4,0.43111 -4.82423,0.65611 -10.722634,0.5 l -10.724363,-0.28383 -9.025639,-20.64056 c -4.964101,-11.3523 -12.36791,-28.35003 -16.452909,-37.77273 -4.084999,-9.42269 -7.769605,-16.78444 -8.188014,-16.35944 -0.418408,0.425 -8.131532,17.42273 -17.140275,37.77273 l -16.379533,37 -10.710126,0.28411 L 0,436.92803 z M 223.05535,405.85981 v -31 h 17.88699 17.88698 l 4.80168,-3.25 c 6.10513,-4.13224 7.25697,-7.2813 4.91056,-13.42527 -2.65553,-6.9534 -5.10338,-7.61907 -27.23621,-7.40657 l -18.25,0.17522 v -10.1248 -10.1248 l 24.25,0.32811 24.25,0.32811 5.80099,2.8485 c 8.12437,3.98936 10.33096,7.67868 12.09012,20.21418 2.37298,16.90939 -0.90047,29.30163 -9.24331,34.99227 -2.00629,1.36849 -5.3353,2.76097 -7.3978,3.09441 -2.0625,0.33344 -3.75,0.76162 -3.75,0.95151 0,0.40273 6.31502,10.53419 15.83149,25.39913 3.69713,5.775 7.75921,12.1875 9.02684,14.25 l 2.30479,3.75 h -12.9957 -12.99569 l -13.58587,-22.18892 -13.58586,-22.18891 v 22.18891 22.18892 h -10 -10 z m 236.91908,27.21205 c -1.41951,-2.04163 -13.90701,-19.32405 -27.75,-38.40539 l -25.16908,-34.69334 v -14.55666 -14.55666 h 10.5 10.5 l 0.0271,18.75 0.0271,18.75 3.22294,-3.52747 c 1.77262,-1.94011 9.02957,-10.37761 16.12656,-18.75 l 12.90354,-15.22253 h 11.34638 c 6.24051,0 11.34638,0.29156 11.34638,0.64792 0,0.35636 -7.9875,10.50938 -17.75,22.56228 -9.7625,12.0529 -18.31888,22.71328 -19.01418,23.68974 -1.11025,1.5592 1.18736,5.11311 18.86991,29.18771 11.07375,15.07679 20.58523,27.97485 21.13663,28.66235 0.79163,0.98704 -1.60025,1.24202 -11.36992,1.21205 l -12.37244,-0.038 z M 38.055346,318.81686 c 10.829112,-1.59116 69.298804,-4.88922 70.890174,-3.99864 0.9294,0.52012 -1.6708,1.05591 -6.95278,1.43269 -4.640564,0.33102 -14.74755,1.05223 -22.459964,1.6027 -21.112281,1.50688 -49.694819,2.17067 -41.47743,0.96325 z m 418.000004,0.4314 c -1.375,-0.14307 -17.4625,-0.81765 -35.75,-1.49907 -18.2875,-0.68141 -33.25,-1.60171 -33.25,-2.0451 0,-0.4434 1.16412,-1.09835 2.58694,-1.45546 3.24723,-0.815 75.36251,3.17294 74.19716,4.10307 -0.72223,0.57645 -5.53411,1.13068 -7.7841,0.89656 z M 28.055346,317.18448 c 0,-1.16077 38.165397,-67.32409 38.823282,-67.30383 0.372195,0.0115 3.640429,4.84896 7.262742,10.75 3.622313,5.90104 12.059813,19.63055 18.75,30.51003 6.690186,10.87949 12.16398,20.14912 12.16398,20.59918 0,0.84669 -3.20353,1.11236 -43.500004,3.60748 -13.2,0.81733 -26.1375,1.6958 -28.75,1.95215 -2.6125,0.25635 -4.75,0.20459 -4.75,-0.11501 z m 426.000004,-1.37741 c -6.875,-0.41774 -20.825,-1.2622 -31,-1.87658 -10.175,-0.61438 -21.28165,-1.36413 -24.68145,-1.66612 l -6.18146,-0.54907 6.55288,-10.67774 c 9.85976,-16.06622 19.32738,-31.55591 25.90949,-42.38976 3.2453,-5.34161 6.13154,-9.72911 6.41386,-9.75 0.52558,-0.0389 38.98668,66.48988 38.98668,67.43791 0,0.28825 -0.7875,0.45812 -1.75,0.37749 -0.9625,-0.0806 -7.375,-0.4884 -14.25,-0.90613 z M 109.5072,312.90332 c -1.21547,-0.4924 -9.651454,-13.22058 -20.750006,-31.30753 -10.286016,-16.7628 -18.701848,-30.74982 -18.701848,-31.08228 0,-0.33245 1.934658,0.56411 4.299239,1.99237 3.818436,2.30642 6.22288,5.8203 21.5,31.42031 9.460425,15.85291 17.200765,29.07325 17.200765,29.37854 0,0.73085 -1.04501,0.61263 -3.54815,-0.40141 z m 275.54815,0.62259 c 0,-0.55627 33.12718,-57.06638 34.28735,-58.48919 0.59337,-0.7277 2.82497,-2.21389 4.95911,-3.30265 4.7371,-2.41668 6.11424,-5.17143 -12.81069,25.62574 -8.11143,13.2 -16.14029,26.33626 -17.84191,29.1917 -1.70163,2.85543 -4.12753,5.66793 -5.39091,6.25 -2.39683,1.10427 -3.20295,1.28659 -3.20295,0.7244 z M 145.32848,307.5988 c -2.15108,-2.79517 -10.42043,-18.92503 -9.94573,-19.39973 0.57887,-0.57886 1.60094,0.9363 8.0203,11.88963 2.4913,4.25089 4.15822,7.95843 3.70427,8.23899 -0.45394,0.28055 -1.25443,-0.0474 -1.77884,-0.72889 z m -35.38633,-9.0378 c -3.08726,-5.06065 -11.974764,-19.43153 -19.750001,-31.93528 -7.775242,-12.50375 -14.136803,-23.14296 -14.136803,-23.64269 0,-0.49972 7.107136,-10.74438 15.793636,-22.76591 8.686508,-12.02152 22.222448,-30.74915 30.079888,-41.61696 9.03016,-12.48982 14.71675,-19.50952 15.45637,-19.07982 0.64356,0.37391 3.08261,1.97486 5.42011,3.55769 2.3375,1.58282 4.25,2.49099 4.25,2.01816 0,-0.47284 -0.92936,-4.40789 -2.06524,-8.74456 -1.13588,-4.33668 -1.87807,-8.60061 -1.6493,-9.47541 0.36515,-1.39633 51.22403,-72.584353 54.10649,-75.733747 0.87192,-0.952668 3.15761,-0.789605 10.51289,0.75 5.16931,1.082036 9.79814,1.967339 10.2863,1.967339 0.48816,0 -1.87281,-3.561123 -5.2466,-7.913607 -4.75317,-6.132018 -5.98114,-8.395709 -5.45449,-10.055047 0.37382,-1.177792 1.1463,-1.985897 1.71662,-1.795789 1.16236,0.387454 26.79333,42.649943 26.79333,44.179092 0,0.901985 -9.3212,18.235929 -28.54626,53.085349 -15.08038,27.33631 -19.45374,35.41963 -19.45374,35.95646 0,0.29895 18.225,0.54354 40.5,0.54354 h 40.5 v -15.2 c 0,-9.53741 0.35171,-14.84609 0.94409,-14.25 0.51925,0.5225 4.17046,8.15 8.11379,16.95 20.07,44.7885 23.94212,53.6047 23.94212,54.51239 0,0.64039 -24.52237,0.99914 -69.75,1.0204 l -69.75,0.0328 -16.83285,25.95095 -16.83286,25.95096 6.58286,11.81032 c 3.62057,6.49568 6.58285,12.128 6.58285,12.51625 0,0.38826 -5.9625,0.68397 -13.25,0.65712 l -13.25,-0.0488 -5.6132,-9.20119 z m 243.1132,8.96596 c 0,-0.25276 1.61459,-3.85944 3.58799,-8.01484 3.08209,-6.49002 4.07851,-7.71717 7.067,-8.70346 1.91346,-0.6315 3.68461,-0.94259 3.93589,-0.69131 0.25128,0.25128 -1.46637,4.23363 -3.81701,8.84967 -3.9156,7.68925 -4.54631,8.41906 -7.52387,8.70615 -1.7875,0.17235 -3.25,0.10655 -3.25,-0.14621 z m 13.12552,-9.94912 5.14733,-10.34985 -25.30326,-40.43409 C 271.83485,128.23965 252.05535,96.470447 252.05535,95.862908 c 0,-0.660516 24.49121,-39.734504 27.1944,-43.386736 1.28386,-1.734605 2.86217,0.16429 19.94815,24 10.20469,14.236002 25.68085,35.783638 34.39147,47.883638 8.71062,12.1 15.78058,22.675 15.71101,23.5 -0.0696,0.825 -1.95315,5.68501 -4.18575,10.80002 -2.23261,5.115 -4.05928,9.67611 -4.05928,10.1358 0,0.45968 4.64767,-0.41108 10.32816,-1.93502 l 10.32816,-2.77079 3.95764,5.13499 c 18.08079,23.4597 53.38604,70.73458 53.38604,71.48567 0,0.51561 -8.25462,15.72264 -18.34359,33.7934 l -18.3436,32.85593 -10.6673,0.28394 -10.66731,0.28394 z m -10.7288,-14.46803 c -2.2511,-3.7125 -24.46917,-39.6 -49.37349,-79.75 -62.16643,-100.22285 -55.17161,-87.89049 -54.81906,-96.64976 l 0.29583,-7.350238 2.93453,4.499998 c 1.614,2.475 5.0242,7.875 7.57822,12 4.69952,7.59017 44.28946,70.75914 60.47952,96.5 30.37488,48.29352 45.72566,72.90433 46.12892,73.95522 0.39986,1.04203 -5.41959,3.54478 -8.24239,3.54478 -0.48904,0 -2.73098,-3.0375 -4.98208,-6.75 z m -220.73334,1.58445 -2.6445,-2.33445 15.24056,-23.73467 c 8.38231,-13.05406 15.5665,-23.74156 15.96488,-23.75 0.39838,-0.008 1.43913,1.36696 2.31278,3.05642 1.77406,3.43065 2.56411,1.98663 -19.84011,36.2627 l -8.38912,12.83444 z m 32.62784,-47.34994 c -0.90732,-1.90267 -1.39429,-3.71477 -1.08216,-4.0269 0.31213,-0.31213 31.29326,-0.83901 68.84696,-1.17086 66.91548,-0.59129 68.26384,-0.56522 67.49826,1.30495 -0.42965,1.04957 -1.02816,2.8083 -1.33002,3.9083 -0.30185,1.1 -1.0383,2.33412 -1.63654,2.74249 -0.59825,0.40837 -30.23852,0.73324 -65.86728,0.72195 l -64.77955,-0.0205 -1.64967,-3.45939 z m 23.33942,-51.1872 c -0.4489,-0.4489 43.77992,-81.10787 45.31881,-82.64676 0.73407,-0.73407 1.05055,0.82726 1.05055,5.18269 0,4.5928 -0.62958,7.47459 -2.39225,10.95 -4.11796,8.11933 -35.67803,64.66998 -36.62435,65.62504 -0.90199,0.91033 -6.63792,1.60386 -7.35276,0.88903 z m 74.5378,-12.75014 c 0.21916,-8.2312 0.75532,-12.87564 1.58156,-13.7 0.99986,-0.9976 1.25,1.49434 1.25,12.45283 0,11.8251 -0.21644,13.7 -1.58156,13.7 -1.37515,0 -1.53828,-1.62515 -1.25,-12.45283 z M 226.75395,74.667766 c -15.57254,-26.260236 -15.81,-26.748725 -16.39504,-33.727061 -0.3265,-3.894491 -0.34395,-7.080893 -0.0388,-7.080893 0.43543,0 25.04726,45.526616 31.48081,58.232765 0.76103,1.503021 1.2421,4.192698 1.06904,5.977061 -0.28055,2.892802 -2.0266,0.357389 -16.11604,-23.401872 z m 17.96807,24.525379 c -2.19516,-2.195153 0.49159,-8.107557 15.88685,-34.960314 15.12878,-26.387932 16.49515,-28.442671 15.8752,-23.873019 -0.47946,3.53415 -2.94543,9.10438 -8.41137,19 -4.25318,7.7 -11.00573,19.9625 -15.00567,27.25 -3.99993,7.2875 -7.3639,13.25 -7.47548,13.25 -0.11158,0 -0.50287,-0.3 -0.86953,-0.666667 z m -2.28744,-9.509889 c -0.45627,-0.727894 -7.69033,-14.148444 -16.07569,-29.823444 l -15.24611,-28.5 32.62409,-0.26386 c 17.94325,-0.145123 32.82125,-0.0667 33.06223,0.174277 0.38744,0.387435 -29.09385,53.277398 -32.28119,57.913027 -0.99094,1.441217 -1.42764,1.546026 -2.08333,0.5 z M 62.727456,0.10996039 c 36.39466,-0.14540548 96.244664,-0.14542903 133.000004,-5.234e-5 36.75534,0.14537668 6.97789,0.2643448 -66.17211,0.2643736 C 56.405346,0.37431044 26.332795,0.25536588 62.727456,0.10996039 z m 266.154914,-1.85e-5 c 31.52986,-0.14661675 82.82986,-0.14658508 114,7.038e-5 31.17014,0.14665545 5.37298,0.26661461 -57.32702,0.2665759 -62.7,-3.87e-5 -88.20284,-0.12002953 -56.67298,-0.26664628 z"
     style="fill:#000000"
     inkscape:connector-curvature="0" />
</svg>
